<svg id="Ebene_1" data-name="Ebene 1" xmlns="http://www.w3.org/2000/svg" viewBox="0 0 283.46 283.46"><defs><style>.cls-1,.cls-2{fill:#1d1d1b;}.cls-1{stroke:#1d1d1b;stroke-miterlimit:10;stroke-width:6.89px;}</style></defs><title>events</title><path class="cls-1" d="M138.63,37.89h57.29a4.54,4.54,0,0,1,4.54,4.54v0A4.54,4.54,0,0,1,195.92,47H138.63a0,0,0,0,1,0,0V37.89a0,0,0,0,1,0,0Z" transform="translate(40.13 159.9) rotate(-56.28)"/><path class="cls-1" d="M201.62,79.94h57.29a4.54,4.54,0,0,1,4.54,4.54v0A4.54,4.54,0,0,1,258.91,89H201.62a0,0,0,0,1,0,0V79.94a0,0,0,0,1,0,0Z" transform="translate(33.18 230.99) rotate(-56.28)"/><path class="cls-1" d="M170.13,58.91h57.29A4.54,4.54,0,0,1,232,63.45v0A4.54,4.54,0,0,1,227.42,68H170.13a0,0,0,0,1,0,0V58.91A0,0,0,0,1,170.13,58.91Z" transform="translate(36.66 195.44) rotate(-56.28)"/><path class="cls-1" d="M184.23,88.64,149,65.1,130.12,93.33c-6,9-5,18.24.4,27.62,4.53,7.94,8,15,4.6,20.15L63.24,248.79c-3.4,5.1-2.72,12.13,2,16,.3.25.61.47.93.69s.64.4,1,.59c5.39,2.9,12.15.84,15.55-4.26l71.88-107.69c3.41-5.11,11.3-4.62,20.38-3.49,10.71,1.35,19.67-1.25,25.66-10.23l18.84-28.22Z"/><path class="cls-2" d="M88.89,149.19A42.26,42.26,0,0,0,107,167.13l20.27-30.37c.06-1.51-1.54-5.12-4.75-10.76-7.52-13.18-7.54-26.07-.06-37.29l8-12L100.56,20.24a12.83,12.83,0,0,0-17.32-5.36l-13.35,7A42.65,42.65,0,0,0,52.1,79.5Z"/><path class="cls-2" d="M174.51,160.32l-.73-.06a67.49,67.49,0,0,0-8.1-.67A10.4,10.4,0,0,0,162,160l-12.28,18.39,44.54,84.39a15.32,15.32,0,0,0,14.51,8.08,14.68,14.68,0,0,0,4.69-1.09c.45-.2.89-.4,1.34-.64s.84-.47,1.24-.73a15.26,15.26,0,0,0,5.06-19.78Z"/></svg>