<svg id="Ebene_1" data-name="Ebene 1" xmlns="http://www.w3.org/2000/svg" viewBox="0 0 283.46 283.46"><defs><style>.cls-1,.cls-2{fill:none;stroke-width:7px;}.cls-1,.cls-2,.cls-5{stroke:#010101;}.cls-1{stroke-miterlimit:10;}.cls-2,.cls-5{stroke-linejoin:round;}.cls-3{fill:#1d1d1b;}.cls-4,.cls-5{fill:#010101;}.cls-5{stroke-width:3.92px;}</style></defs><title>login</title><line class="cls-1" x1="201.63" y1="177.38" x2="201.63" y2="231.97"/><line class="cls-1" x1="80.11" y1="177.38" x2="80.11" y2="231.97"/><path class="cls-2" d="M139.37,232H72c-3.93,0-7.12-2.72-7.12-6.07V201.64h0c0-12.55,3.41-24.31,31.43-30.62a128,128,0,0,1,15.49-2.43L139.37,232h3l27.56-63.38A128,128,0,0,1,185.42,171c28,6.31,31.43,18.07,31.43,30.62h0V225.9c0,3.35-3.19,6.07-7.12,6.07H142.37"/><path class="cls-3" d="M129.08,171.34l11.28,5.85a1.08,1.08,0,0,0,1,0l11.28-5.85c1-.51,2,.58,2,2.14v14.09c0,1.56-1,2.65-2,2.14l-11.28-5.85a1.08,1.08,0,0,0-1,0l-11.28,5.85c-1,.51-2-.58-2-2.14V173.48C127,171.92,128.08,170.83,129.08,171.34Z"/><line class="cls-1" x1="171.53" y1="200.28" x2="189.43" y2="200.28"/><path class="cls-4" d="M129.81,114.18h-7.37a3.71,3.71,0,0,1,0-7.42h7.37a3.71,3.71,0,0,1,0,7.42Z"/><path class="cls-4" d="M159.3,114.18h-7.37a3.71,3.71,0,0,1,0-7.42h7.37a3.71,3.71,0,0,1,0,7.42Z"/><path class="cls-4" d="M140.87,147.57c-10.28,0-13.62-4.54-14.18-5.45a3.71,3.71,0,0,1,1.17-5.11,3.67,3.67,0,0,1,5,1c.2.21,2.13,2.13,8,2.13,6.22,0,8-2.13,8.06-2.15a3.57,3.57,0,0,1,5-1.08,3.81,3.81,0,0,1,1.1,5.21C154.49,143,151.15,147.57,140.87,147.57Z"/><path class="cls-2" d="M184.79,111.13c-.41-6.35-2.46-11.37-4.58-11.21a1.43,1.43,0,0,0-.28.07c-4.06-22.8-20-39.82-39.06-39.82s-35,17-39.06,39.82a1.43,1.43,0,0,0-.28-.07c-2.12-.16-4.17,4.86-4.58,11.21s1,11.64,3.11,11.8a2,2,0,0,0,1.6-.86c3.84,23.2,19.93,40.61,39.21,40.61s35.37-17.41,39.21-40.61a2,2,0,0,0,1.6.86C183.8,122.77,185.19,117.49,184.79,111.13Z"/><path class="cls-5" d="M184.13,103.32s-17.57-3.19-19.81-27.72c0,0-10.54,18.71-31.71,21.59,0,0,1.73-10.66.45-14,0,0-13.44,25.73-35,16.87,0,0-4.2-20.33,6.57-35s26.69-16.9,36.52-16.84c8.89.05,19.86,1.94,33.2,14.83S184.13,103.32,184.13,103.32Z"/><rect class="cls-3" x="10" y="227.2" width="261.74" height="7.97"/></svg>