<svg id="Ebene_1" data-name="Ebene 1" xmlns="http://www.w3.org/2000/svg" viewBox="0 0 283.46 283.46"><defs><style>.cls-1,.cls-2,.cls-4{fill:#1d1d1b;}.cls-1,.cls-2,.cls-3{stroke:#1d1d1b;stroke-miterlimit:10;}.cls-1{stroke-width:0.95px;}.cls-2{stroke-width:0.93px;}.cls-3{fill:none;stroke-width:3.52px;}</style></defs><title>logo</title><path class="cls-1" d="M252.4,129.44h7.85a.62.62,0,0,1,.62.62v0a.62.62,0,0,1-.62.62H252.4a0,0,0,0,1,0,0v-1.24a0,0,0,0,1,0,0Z" transform="translate(-30.1 106.38) rotate(-22.15)"/><path class="cls-1" d="M256.32,139.06h7.85a.62.62,0,0,1,.62.62v0a.62.62,0,0,1-.62.62h-7.85a0,0,0,0,1,0,0v-1.24A0,0,0,0,1,256.32,139.06Z" transform="translate(-33.44 108.57) rotate(-22.15)"/><path class="cls-1" d="M254.36,134.25h7.85a.62.62,0,0,1,.62.62v0a.62.62,0,0,1-.62.62h-7.85a0,0,0,0,1,0,0v-1.24a0,0,0,0,1,0,0Z" transform="matrix(0.93, -0.38, 0.38, 0.93, -31.77, 107.48)"/><path class="cls-1" d="M254.78,136.44l-2.19-5.39-4.31,1.76A3.35,3.35,0,0,0,246.2,136c-.1,1.25-.25,2.32-1,2.64l-10,4.08a1.66,1.66,0,0,0-1,2,.58.58,0,0,0,0,.14,1,1,0,0,0,.07.15,1.65,1.65,0,0,0,2.09.71l10-4.08c.79-.32,1.64.34,2.59,1.17a3.34,3.34,0,0,0,3.69.81l4.31-1.75Z"/><path class="cls-2" d="M213.92,125l-1.33,1.53a5.26,5.26,0,0,0,.53,7.42l8,6.95a5.26,5.26,0,0,0,7.42-.53l.09-.1,6,5.19a1.58,1.58,0,0,0,2.12,0,1.14,1.14,0,0,0,.11-.11l.09-.12a1.57,1.57,0,0,0-.25-2.11l-6-5.19-1.42-1.23L215.7,124.82A1.27,1.27,0,0,0,213.92,125Z"/><circle class="cls-3" cx="237.43" cy="141.73" r="33.61"/><path class="cls-4" d="M17.71,134.29v6.39H28.46V145H17.71V155.3H12.42V130H31.34v4.25Z"/><path class="cls-4" d="M51.55,145.73c0,6.24-3.64,10-9.8,10S32,152,32,145.73s3.64-9.95,9.8-9.95S51.55,139.49,51.55,145.73Zm-14.35,0c0,4.06,1.6,6.05,4.55,6.05s4.56-2,4.56-6.05-1.61-6-4.56-6S37.2,141.67,37.2,145.73Z"/><path class="cls-4" d="M74.29,145.73c0,6.24-3.63,10-9.8,10s-9.8-3.72-9.8-10,3.64-9.95,9.8-9.95S74.29,139.49,74.29,145.73Zm-14.35,0c0,4.06,1.6,6.05,4.55,6.05s4.56-2,4.56-6.05-1.61-6-4.56-6S59.94,141.67,59.94,145.73Z"/><path class="cls-4" d="M97,127.78V155.3H92.29l-.23-3.56a6.81,6.81,0,0,1-6.32,3.95c-5.09,0-8.19-3.68-8.19-9.92s3.1-10,8.19-10a6.35,6.35,0,0,1,6,3.52V127.78Zm-5.25,18.14v-.38c0-3.64-1.68-5.74-4.44-5.74s-4.48,2-4.48,5.93,1.73,5.94,4.48,5.94S91.71,149.64,91.71,145.92Z"/><path class="cls-4" d="M120.93,152l-.39,3.18a5.48,5.48,0,0,1-2.49.54c-2.29,0-3.86-.81-4.4-2.87-1.15,1.87-3.56,2.87-6.77,2.87-3.64,0-5.94-1.69-5.94-4.9,0-3,2.34-5.09,7.47-6l4.59-.88v-.92a3,3,0,0,0-3.25-3.33c-2.22,0-3.83.84-4.41,3.25l-4.17-1.76c.8-3.25,3.68-5.32,8.35-5.32,5.32,0,8.69,2.3,8.69,7v7.85c0,1,.42,1.46,1.41,1.46A4.57,4.57,0,0,0,120.93,152ZM113,149.06v-2l-4.1.92c-1.68.38-2.56,1-2.56,2.26s.8,1.88,2.18,1.88C110.51,152.13,113,151.09,113,149.06Z"/><path class="cls-4" d="M122.27,152l3.06-3.14c1.07,2.3,3.14,3,5.74,3,2.26,0,3.52-.69,3.52-1.72,0-.88-1-1.42-3.82-2-6-1.19-8-3-8-6.21s3-6.16,8.62-6.16c4.4,0,6.77,1.3,8.53,4.06l-3.44,2.95a4.86,4.86,0,0,0-5-3.18c-2.14,0-3.44.84-3.44,1.84s.95,1.68,4.17,2.33c5.59,1.11,7.66,2.79,7.66,6,0,3.45-3,5.94-8.73,5.94C127.21,155.69,124,154.62,122.27,152Z"/><path class="cls-4" d="M156.8,154.12a8.65,8.65,0,0,1-5.24,1.57c-3.8,0-6.4-1.57-6.4-5.78v-9.84h-3.48v-3.91h3.48v-4.4l5.25-1.46v5.86h6.2v3.91h-6.2v9a2.35,2.35,0,0,0,2.64,2.65,4.24,4.24,0,0,0,2.95-1.08Z"/><path class="cls-4" d="M159.1,130.61c0-1.88,1.07-2.83,3.25-2.83s3.26.95,3.26,2.83-1.08,2.8-3.26,2.8S159.1,132.49,159.1,130.61ZM165,155.3h-5.24V136.16H165Z"/><path class="cls-4" d="M187.66,141.41l-4.9,1.76c-.46-2.3-1.69-3.49-3.72-3.49-3,0-4.67,2.07-4.67,6.09s1.8,6,4.64,6a3.7,3.7,0,0,0,4-3.41l4.74,1.54c-.8,3.4-3.79,5.78-8.65,5.78-6.35,0-10-3.68-10-10s3.64-9.95,9.76-9.95C184.29,135.78,186.74,138.27,187.66,141.41Z"/></svg>