<svg id="Ebene_1" data-name="Ebene 1" xmlns="http://www.w3.org/2000/svg" viewBox="0 0 283.46 283.46"><defs><style>.cls-1{fill:#1d1d1b;}</style></defs><title>social</title><circle class="cls-1" cx="199.18" cy="105.55" r="41.97"/><path class="cls-1" d="M19,241c-4.29,0-7.78-3.84-7.78-8.58V198.11h0c0-17.78,3.73-34.42,34.33-43.35a80.78,80.78,0,0,1,16.92-3.45c15.84-1.18,47.63-1,63.48,0a77,77,0,0,1,16.91,3.45c30.6,8.93,34.33,25.57,34.33,43.35h0v34.34c0,4.74-3.48,8.58-7.78,8.58Z"/><path class="cls-1" d="M241.58,163.94a68.88,68.88,0,0,0-15.11-3.07c-14.17-.91-42.57-1.06-56.73,0-.72,0-1.43.12-2.14.2,13.94,9.93,16.09,23.25,16.09,37.22v37a9.81,9.81,0,0,1-1.8,5.7H265.3c3.84,0,6.95-3.43,6.95-7.67V202.68h0C272.25,186.79,268.92,171.93,241.58,163.94Z"/><circle class="cls-1" cx="95.41" cy="89.4" r="46.97"/></svg>