<svg id="Ebene_1" data-name="Ebene 1" xmlns="http://www.w3.org/2000/svg" viewBox="0 0 283.46 283.46"><defs><style>.cls-1{fill:#1d1d1b;}.cls-2{fill:none;stroke:#1d1d1b;stroke-linecap:round;stroke-linejoin:round;stroke-width:16px;}</style></defs><title>subscribe</title><path class="cls-1" d="M140.45,168.06c11.6,0,23.35.28,31.08.78a72.13,72.13,0,0,1,15.88,3.23c28.72,8.39,32.22,24,32.22,40.69h0V245c0,4.46-3.27,8.06-7.3,8.06H71.13c-4,0-7.3-3.6-7.3-8.06V212.76h0c0-16.68,3.5-32.3,32.23-40.69a75.63,75.63,0,0,1,15.88-3.23c7.15-.54,17.76-.78,28.51-.78m0-16v0c-12.08,0-22.64.29-29.71.82a91.6,91.6,0,0,0-19.16,3.83c-17.08,5-28.83,12.84-35.92,24-6.94,10.94-7.83,22.87-7.83,32V245c0,13.27,10.45,24.06,23.3,24.06h141.2c12.85,0,23.3-10.79,23.3-24.06V212.76c0-9.16-.89-21.09-7.83-32-7.09-11.18-18.84-19-35.91-24a86.56,86.56,0,0,0-19.34-3.84c-7.9-.51-19.9-.81-32.1-.81Z"/><path class="cls-1" d="M141.73,30.4A44.1,44.1,0,1,1,97.64,74.49,44.09,44.09,0,0,1,141.73,30.4m0-16a60.1,60.1,0,1,0,60.09,60.09A60.16,60.16,0,0,0,141.73,14.4Z"/><line class="cls-2" x1="141.73" y1="234.68" x2="141.73" y2="189.64"/><line class="cls-2" x1="119.22" y1="212.16" x2="164.25" y2="212.16"/></svg>